<svg xmlns="http://www.w3.org/2000/svg" width="10.272" height="22.378" viewBox="0 0 10.272 22.378"><defs><style>.a{fill:#303030;}</style></defs><path class="a" d="M-299.468-61.033c-.017-.213-.049-.426-.05-.64q-.018-5.019-.03-10.039c0-.161-.016-.321-.026-.519h-2.253v-3.834h2.278c0-.249,0-.443,0-.635.03-1.109-.008-2.225.111-3.324a3.3,3.3,0,0,1,2.691-3.062,18.675,18.675,0,0,1,2.357-.273c.2-.021.393-.035.59-.053h.4l1.815.092v3.873c-.251,0-.522,0-.794,0-.563,0-1.126,0-1.688.016-.664.025-.876.208-.9.859-.032.809-.008,1.62-.008,2.483h3.424c-.108,1.218-.2,2.379-.331,3.537-.01.091-.262.217-.4.22-.876.02-1.753.01-2.7.01,0,.22,0,.4,0,.571q-.015,5.066-.034,10.132a5.341,5.341,0,0,1-.065.585Z" transform="translate(301.827 83.411)"/></svg>