<svg xmlns="http://www.w3.org/2000/svg" width="21.757" height="21.756" viewBox="0 0 21.757 21.756">
  <g id="Group_267" data-name="Group 267" transform="translate(-887.086 -887.741)">
    <path id="Path_2511" data-name="Path 2511" d="M887.086,902.149V895.09c.062-.669.113-1.339.189-2.006a5.7,5.7,0,0,1,5.15-5.153c.669-.072,1.34-.127,2.01-.19h7.156c.654.064,1.308.12,1.961.192a5.626,5.626,0,0,1,5,4.631c.152.832.2,1.683.289,2.525v7.156c-.064.652-.12,1.3-.192,1.954a5.712,5.712,0,0,1-5.147,5.109c-.7.073-1.4.126-2.107.189h-6.962c-.686-.063-1.373-.119-2.058-.192a5.625,5.625,0,0,1-5-4.581C887.221,903.878,887.181,903.008,887.086,902.149ZM897.92,904.2a5.576,5.576,0,1,0-5.539-5.6A5.533,5.533,0,0,0,897.92,904.2Zm7.153-11.393a1.269,1.269,0,0,0-1.318-1.3,1.284,1.284,0,0,0-1.294,1.28,1.32,1.32,0,0,0,1.3,1.335A1.3,1.3,0,0,0,905.073,892.8Z" fill="#303030"/>
    <path id="Path_2512" data-name="Path 2512" d="M962.088,966.326a3.625,3.625,0,1,1,3.613,3.681A3.644,3.644,0,0,1,962.088,966.326Z" transform="translate(-67.75 -67.763)" fill="#303030"/>
  </g>
</svg>
